#!OML:ASF H:\Terrain\Patient Classification 1\Terrain2\Thursday\justin.ASF
:FULLY-SPECIFIED
:DEGREES
1373
root -0.862744 17.4359 22.5337 184.061 -14.8447 -176.608
lowerback 6.09546 -0.860083 -3.15138
upperback 2.78643 -1.53583 4.30631
thorax -0.337493 -0.935466 6.35055
lowerneck -10.1752 0.707071 -14.4235
upperneck 40.0355 -4.24154 8.56654
head 16.5056 -4.55385 5.26408
rclavicle 1.96797e-014 -1.63003e-014
rhumerus -25.2408 6.74216 -84.2949
rradius 41.733
rwrist -15.1571
rhand -21.6558 10.5839
rfingers 7.12502
rthumb 4.74116 -19.3431
lclavicle 1.96797e-014 -1.63003e-014
lhumerus -39.6534 9.67287 82.1382
lradius 26.2563
lwrist -4.2551
lhand -21.5502 19.6967
lfingers 7.12502
lthumb 4.84307 49.6213
rfemur -26.7355 -2.5759 23.6572
rtibia 48.8671
rfoot -29.1161 1.06551
rtoes -8.0822
lfemur -11.5266 4.68478 -17.7395
ltibia 34.4285
lfoot -21.8453 -6.35278
ltoes 0.0598932
1374
root -0.884323 17.4335 22.5451 183.963 -13.7987 -176.487
lowerback 5.99546 -0.744734 -3.02674
upperback 2.88634 -1.38595 4.31703
thorax -0.201544 -0.869251 6.27713
lowerneck -10.0984 0.733797 -14.2949
upperneck 39.9239 -4.19021 8.41725
head 16.4088 -4.5305 5.17201
rclavicle -6.55989e-015 1.94809e-014
rhumerus -25.4966 6.77464 -84.2653
rradius 42.0579
rwrist -15.4877
rhand -21.3145 10.6019
rfingers 7.12502
rthumb 5.07066 -19.3174
lclavicle -6.55989e-015 1.94809e-014
lhumerus -39.369 10.4839 81.2435
lradius 26.169
lwrist -4.73978
lhand -21.553 19.4326
lfingers 7.12502
lthumb 4.84035 49.3573
rfemur -26.5929 -3.00216 23.8525
rtibia 49.4068
rfoot -28.8879 0.898049
rtoes -8.39042
lfemur -11.2657 5.12825 -17.7531
ltibia 34.3478
lfoot -21.8385 -5.97671
ltoes 0.430207
1375
root -0.901198 17.4246 22.5584 183.881 -12.9935 -176.459
lowerback 6.04475 -0.688279 -2.95378
upperback 2.90107 -1.31075 4.29226
thorax -0.226176 -0.831581 6.20572
lowerneck -9.94768 0.826896 -14.2375
upperneck 39.8026 -4.10708 8.45647
head 16.2872 -4.48621 5.18458
rclavicle -5.56597e-015 1.63003e-014
rhumerus -25.8256 6.89474 -84.3506
rradius 42.0183
rwrist -15.1831
rhand -22.0671 10.6057
rfingers 7.12502
rthumb 4.34397 -19.3298
lclavicle -5.56597e-015 1.63003e-014
lhumerus -39.2753 11.2327 80.2821
lradius 26.1537
lwrist -5.07934
lhand -21.8224 19.4404
lfingers 7.12502
lthumb 4.5803 49.3709
rfemur -26.4172 -3.46217 23.9617
rtibia 49.8351
rfoot -28.6735 0.859643
rtoes -7.1454
lfemur -11.0987 5.39148 -17.8022
ltibia 34.3498
lfoot -21.8796 -5.87833
ltoes 2.18739
1376
root -0.914818 17.4244 22.5718 183.83 -12.2874 -176.475
lowerback 6.18696 -0.676474 -2.91918
upperback 2.85782 -1.29195 4.23868
thorax -0.354798 -0.816312 6.13235
lowerneck -9.82275 0.891006 -14.2002
upperneck 39.7238 -4.06377 8.45507
head 16.203 -4.47265 5.17644
rclavicle 2.33572e-014 1.03368e-014
rhumerus -26.2626 7.07155 -84.5684
rradius 42.1684
rwrist -14.8929
rhand -22.9052 9.73068
rfingers 7.12502
rthumb 3.53465 -20.2198
lclavicle 2.33572e-014 1.03368e-014
lhumerus -39.3158 11.6178 79.5883
lradius 26.5153
lwrist -3.91108
lhand -22.965 20.5437
lfingers 7.12502
lthumb 3.47694 50.4951
rfemur -26.2738 -4.03379 24.0609
rtibia 50.1697
rfoot -28.4689 0.690721
rtoes -6.17865
lfemur -10.9636 4.8046 -17.9818
ltibia 34.4114
lfoot -21.9796 -4.66365
ltoes 1.90953
1377
root -0.928913 17.4269 22.5811 183.817 -11.502 -176.263
lowerback 6.18617 -0.656398 -2.701
upperback 2.81119 -1.25457 4.25974
thorax -0.412088 -0.79451 6.02762
lowerneck -9.74523 0.940983 -14.1409
upperneck 39.6929 -4.02729 8.37999
head 16.1563 -4.47188 5.1308
rclavicle -1.87852e-014 -3.97569e-016
rhumerus -26.5025 6.89178 -84.6088
rradius 42.4942
rwrist -15.6375
rhand -21.5378 8.58174
rfingers 7.12502
rthumb 4.85508 -21.3426
lclavicle -1.87852e-014 -3.97569e-016
lhumerus -39.2205 12.3121 78.8402
lradius 26.6847
lwrist -2.58965
lhand -24.3106 21.4436
lfingers 7.12502
lthumb 2.17738 51.4122
rfemur -26.1682 -4.51956 24.3885
rtibia 50.445
rfoot -28.4211 0.68666
rtoes -7.27236
lfemur -10.8804 4.2835 -17.9275
ltibia 34.4331
lfoot -21.9718 -3.49714
ltoes 1.72581
1378
root -0.945442 17.4319 22.5868 183.863 -10.734 -176.12
lowerback 6.1208 -0.640257 -2.50066
upperback 2.73765 -1.21723 4.24553
thorax -0.461387 -0.770128 5.89458
lowerneck -9.74352 1.03016 -13.9944
upperneck 39.7818 -3.97913 8.31289
head 16.187 -4.46423 5.07847
rclavicle -1.74931e-014 7.15625e-015
rhumerus -26.8097 6.70792 -84.6114
rradius 42.6431
rwrist -16.3923
rhand -20.1766 8.18463
rfingers 7.12502
rthumb 6.16932 -21.7055
lclavicle -1.74931e-014 7.15625e-015
lhumerus -39.1927 13.3333 77.7815
lradius 26.7126
lwrist -2.41284
lhand -25.284 21.3323
lfingers 7.12502
lthumb 1.23728 51.3085
rfemur -26.1133 -4.96346 24.6042
rtibia 50.7175
rfoot -28.3863 0.879816
rtoes -7.30515
lfemur -10.8686 4.82144 -17.8217
ltibia 34.4022
lfoot -21.8967 -3.754
ltoes 3.22161
1379
root -0.960998 17.4298 22.5916 183.865 -10.0368 -176.199
lowerback 6.14388 -0.637646 -2.36728
upperback 2.67736 -1.19463 4.06841
thorax -0.54654 -0.748249 5.63098
lowerneck -9.70359 1.08551 -13.7154
upperneck 39.7885 -4.00323 8.2613
head 16.1739 -4.4556 4.99548
rclavicle -9.44227e-015 5.64548e-014
rhumerus -27.4301 7.03113 -85.0254
rradius 42.4179
rwrist -15.695
rhand -21.8418 9.52714
rfingers 7.12502
rthumb 4.56154 -20.4037
lclavicle -9.44227e-015 5.64548e-014
lhumerus -39.3612 13.865 76.7762
lradius 27.2036
lwrist -2.1228
lhand -25.5741 21.52
lfingers 7.12502
lthumb 0.957088 51.4976
rfemur -25.9625 -5.39564 24.5102
rtibia 51.0071
rfoot -28.1849 1.3998
rtoes -3.24118
lfemur -10.7087 5.05289 -17.9967
ltibia 34.3439
lfoot -22.0326 -3.58004
ltoes 3.47831
1380
root -0.972076 17.4158 22.5953 183.887 -9.27193 -176.324
lowerback 5.57636 -0.506088 -2.45981
upperback 2.98655 -1.03865 4.0087
thorax 0.0712377 -0.694448 5.59512
lowerneck -9.68531 0.907289 -13.5993
upperneck 39.393 -4.10992 8.10718
head 15.9756 -4.44927 4.87839
rclavicle 9.93923e-016 4.37326e-015
rhumerus -27.5746 7.68704 -85.3651
rradius 41.6246
rwrist -13.0555
rhand -25.8542 11.6642
rfingers 7.12502
rthumb 0.686601 -18.3144
lclavicle 9.93923e-016 4.37326e-015
lhumerus -38.9364 13.8181 76.5747
lradius 27.9182
lwrist -0.459729
lhand -25.4445 22.2655
lfingers 7.12502
lthumb 1.08223 52.2425
rfemur -25.7777 -5.72728 24.3645
rtibia 51.2808
rfoot -28.0009 1.84073
rtoes -0.932991
lfemur -10.5022 5.05817 -18.2768
ltibia 34.2528
lfoot -22.2965 -2.78084
ltoes 2.2477
1381
root -0.980561 17.4089 22.5928 183.939 -8.42159 -176.322
lowerback 5.57195 -0.470084 -2.67628
upperback 2.84204 -0.991396 4.09191
thorax -0.0751806 -0.665101 5.80623
lowerneck -9.51368 0.987271 -13.4942
upperneck 39.3959 -3.99633 7.81805
head 15.9071 -4.44695 4.73908
rclavicle 7.45443e-015 3.37934e-014
rhumerus -27.6851 6.60875 -84.7421
rradius 42.8028
rwrist -16.6683
rhand -20.8585 8.55179
rfingers 7.12502
rthumb 5.511 -21.3565
lclavicle 7.45443e-015 3.37934e-014
lhumerus -39.374 13.8175 76.2141
lradius 28.8099
lwrist 1.90596
lhand -25.393 22.8331
lfingers 7.12502
lthumb 1.13197 52.8098
rfemur -25.6281 -5.88679 24.3842
rtibia 51.4733
rfoot -27.947 1.78287
rtoes -3.21674
lfemur -10.3628 5.51001 -18.3689
ltibia 34.1746
lfoot -22.4581 -2.38636
ltoes 1.45924
1382
root -0.986531 17.4068 22.5859 183.891 -7.72227 -176.269
lowerback 5.49118 -0.421292 -2.77737
upperback 2.79329 -0.929005 4.15921
thorax -0.0849502 -0.634152 5.93108
lowerneck -9.31681 1.03038 -13.5354
upperneck 39.4068 -4.06172 7.87568
head 15.875 -4.50331 4.75623
rclavicle -8.84592e-015 -4.25399e-014
rhumerus -28.0284 6.7129 -84.8002
rradius 42.2725
rwrist -15.6478
rhand -21.9998 9.57924
rfingers 7.12502
rthumb 4.40894 -20.3549
lclavicle -8.84592e-015 -4.25399e-014
lhumerus -39.5336 13.8893 75.8974
lradius 29.4343
lwrist 3.69817
lhand -25.6203 22.3833
lfingers 7.12502
lthumb 0.912423 52.3611
rfemur -25.3073 -6.0411 24.4698
rtibia 51.5361
rfoot -27.9691 1.34983
rtoes -5.6048
lfemur -10.1291 5.35457 -18.4188
ltibia 34.1611
lfoot -22.5772 -1.68
ltoes 1.22478
1383
root -0.988045 17.3991 22.5833 183.769 -7.27344 -176.05
lowerback 5.50396 -0.400131 -2.65578
upperback 2.77354 -0.902654 4.2641
thorax -0.115928 -0.623084 5.97123
lowerneck -9.22145 1.0576 -13.6546
upperneck 39.406 -4.1551 8.10935
head 15.8716 -4.55175 4.86494
rclavicle 5.76476e-015 -2.74323e-014
rhumerus -28.4813 7.16976 -84.961
rradius 41.7314
rwrist -14.1012
rhand -24.0485 10.5517
rfingers 7.12502
rthumb 2.43051 -19.4142
lclavicle 5.76476e-015 -2.74323e-014
lhumerus -39.5488 13.4899 75.9495
lradius 30.102
lwrist 5.79512
lhand -27.5091 20.7716
lfingers 7.12502
lthumb -0.911757 50.7494
rfemur -24.8447 -6.26917 24.76
rtibia 51.4472
rfoot -27.9259 0.917
rtoes -6.25936
lfemur -9.90725 5.08945 -18.224
ltibia 34.2093
lfoot -22.6865 -1.23113
ltoes 1.23559
1384
root -0.988333 17.3942 22.5805 183.763 -6.84561 -176.023
lowerback 5.55773 -0.419554 -2.73079
upperback 2.66809 -0.926409 4.30515
thorax -0.249793 -0.629092 6.06136
lowerneck -9.13898 1.13438 -13.5619
upperneck 39.405 -4.1104 8.09565
head 15.8386 -4.53783 4.84436
rclavicle -3.49861e-014 1.70955e-014
rhumerus -28.9005 7.23989 -84.9608
rradius 41.5002
rwrist -13.8317
rhand -24.4026 11.1988
rfingers 7.12502
rthumb 2.0885 -18.7707
lclavicle -3.49861e-014 1.70955e-014
lhumerus -39.6444 13.2342 75.8694
lradius 30.8165
lwrist 7.92347
lhand -27.8659 24.2491
lfingers 7.12502
lthumb -1.25644 54.2252
rfemur -24.474 -6.37691 24.8126
rtibia 51.234
rfoot -27.745 0.851747
rtoes -5.04701
lfemur -9.86646 5.28917 -18.1792
ltibia 34.3229
lfoot -22.8132 -1.33997
ltoes 1.73846
1385
root -0.990217 17.3936 22.5752 183.815 -6.36445 -176.15
lowerback 5.63731 -0.432505 -2.91637
upperback 2.50414 -0.937084 4.28014
thorax -0.459358 -0.621458 6.14587
lowerneck -9.07677 1.24412 -13.2949
upperneck 39.4948 -4.00337 7.87676
head 15.8399 -4.50656 4.71038
rclavicle -7.95139e-015 -5.96354e-015
rhumerus -29.0951 6.40767 -84.5702
rradius 42.0917
rwrist -16.1208
rhand -21.5916 9.54795
rfingers 7.12502
rthumb 4.80311 -20.3776
lclavicle -7.95139e-015 -5.96354e-015
lhumerus -39.7263 13.447 75.5133
lradius 31.3437
lwrist 9.24148
lhand -26.3826 61.2437
lfingers 7.12502
lthumb 0.17624 -91.2234
rfemur -24.145 -6.30345 24.6687
rtibia 50.931
rfoot -27.5468 0.680035
rtoes -4.68365
lfemur -9.90508 5.36961 -18.3537
ltibia 34.4974
lfoot -23.0424 -1.15074
ltoes 2.57964
1386
root -0.993047 17.3938 22.571 183.822 -6.03473 -175.895
lowerback 5.6591 -0.474337 -2.61205
upperback 2.38804 -0.974815 4.31777
thorax -0.591551 -0.632971 6.01467
lowerneck -9.01334 1.28549 -13.0937
upperneck 39.567 -4.02589 7.75054
head 15.8569 -4.52662 4.61019
rclavicle 1.09332e-014 6.55989e-014
rhumerus -29.3886 5.98597 -84.518
rradius 41.7758
rwrist -16.0363
rhand -21.4807 10.1164
rfingers 7.12502
rthumb 4.91018 -19.8067
lclavicle 1.09332e-014 6.55989e-014
lhumerus -39.6883 13.3909 75.2498
lradius 31.8938
lwrist 10.7106
lhand -28.1881 21.5219
lfingers 7.12502
lthumb -1.56755 51.4959
rfemur -23.7707 -6.35439 24.9444
rtibia 50.5633
rfoot -27.2894 0.335881
rtoes -5.6868
lfemur -9.99332 5.49663 -18.1046
ltibia 34.6941
lfoot -23.3008 -0.748338
ltoes 1.81503
